<svg width="300" height="300" viewBox="0 0 300 300" fill="none" xmlns="http://www.w3.org/2000/svg">
<path d="M194.971 229.102L195.117 228.955L195.264 228.809L195.41 228.662L195.557 228.516L195.703 228.369L195.85 228.223V227.93L195.996 227.783L196.143 227.637V227.344L196.289 227.197L196.436 227.051V226.758L196.582 226.611L196.729 226.465L196.875 226.318L197.021 226.172V225.879L197.168 225.732L197.314 225.586L197.461 225.439L197.607 225.293V225L197.754 224.854L197.9 224.707V224.414L198.047 224.268L198.193 224.121V223.828L198.34 223.682L198.486 223.535L198.633 223.389L198.779 223.242V222.949L198.926 222.803L199.072 222.656L199.219 222.51L199.365 222.363V222.07L199.512 221.924L199.658 221.777V221.484L199.805 221.338L199.951 221.191V220.898L200.098 220.752L200.244 220.605L200.391 220.459L200.537 220.312V220.02L200.684 219.873L200.83 219.727V219.434L200.977 219.287L201.123 219.141L201.27 218.994L201.416 218.848V218.555L201.562 218.408L201.709 218.262L201.855 218.115L202.002 217.969V217.676L202.148 217.529L202.295 217.383V217.09L202.441 216.943L202.588 216.797V216.504L202.734 216.357L202.881 216.211L203.027 216.064L203.174 215.918V215.625L203.32 215.479L203.467 215.332V215.039L203.613 214.893L203.76 214.746L203.906 214.6L204.053 214.453V214.16L204.199 214.014L204.346 213.867V213.574L204.492 213.428L204.639 213.281L204.785 213.135L204.932 212.988V212.695L205.078 212.549L205.225 212.402V212.109L205.371 211.963L205.518 211.816L205.664 211.67L205.811 211.523V211.23L205.957 211.084L206.104 210.938L206.25 210.791L206.396 210.645V210.352L206.543 210.205L206.689 210.059V209.766L206.836 209.619L206.982 209.473L207.129 209.326L207.275 209.18V208.887L207.422 208.74L207.568 208.594V208.301L207.715 208.154L207.861 208.008L208.008 207.861L208.154 207.715V207.422L208.301 207.275L208.447 207.129V206.836L208.594 206.689L208.74 206.543V206.25L208.887 206.104L209.033 205.957L209.18 205.811L209.326 205.664V205.371L209.473 205.225L209.619 205.078L209.766 204.932L209.912 204.785V204.492L210.059 204.346L210.205 204.199V203.906L210.352 203.76L210.498 203.613V203.32L210.645 203.174L210.791 203.027L210.938 202.881L211.084 202.734V202.441L211.23 202.295L211.377 202.148V201.855L211.523 201.709L211.67 201.562L211.816 201.416L211.963 201.27V200.977L212.109 200.83L212.256 200.684L212.402 200.537L212.549 200.391V200.098L212.695 199.951L212.842 199.805L212.988 199.658L213.135 199.512V199.219L213.281 199.072L213.428 198.926L213.574 198.779L213.721 198.633V198.34L213.867 198.193L214.014 198.047V197.754L214.16 197.607L214.307 197.461V197.168L214.453 197.021L214.6 196.875L214.746 196.729L214.893 196.582V196.289L215.039 196.143L215.186 195.996V195.703L215.332 195.557L215.479 195.41L215.625 195.264L215.771 195.117V194.824L215.918 194.678L216.064 194.531V194.238L216.211 194.092L216.357 193.945V193.652L216.504 193.506L216.65 193.359L216.797 193.213L216.943 193.066V192.773L217.09 192.627L217.236 192.48V192.188L217.383 192.041L217.529 191.895L217.676 191.748L217.822 191.602V191.309L217.969 191.162L218.115 191.016V190.723L218.262 190.576L218.408 190.43L218.555 190.283L218.701 190.137V189.844L218.848 189.697L218.994 189.551L219.141 189.404L219.287 189.258V188.965L219.434 188.818L219.58 188.672V188.379L219.727 188.232L219.873 188.086L220.02 187.939L220.166 187.793V187.5L220.312 187.354L220.459 187.207V186.914L220.605 186.768L220.752 186.621V186.328L220.898 186.182L221.045 186.035L221.191 185.889L221.338 185.742V185.449L221.484 185.303L221.631 185.156V184.863L221.777 184.717L221.924 184.57L222.07 184.424L222.217 184.277V183.984L222.363 183.838L222.51 183.691V183.398L222.656 183.252L222.803 183.105L222.949 182.959L223.096 182.812V182.52L223.242 182.373L223.389 182.227V181.934L223.535 181.787L223.682 181.641L223.828 181.494L223.975 181.348V181.055L224.121 180.908L224.268 180.762V180.469L224.414 180.322L224.561 180.176L224.707 180.029L224.854 179.883V179.59L225 179.443L225.146 179.297V179.004L225.293 178.857L225.439 178.711L225.586 178.564L225.732 178.418V178.125L225.879 177.979L226.025 177.832V177.539L226.172 177.393L226.318 177.246L226.465 177.1L226.611 176.953V176.66L226.758 176.514L226.904 176.367V176.074L227.051 175.928L227.197 175.781V175.488L227.344 175.342L227.49 175.195L227.637 175.049L227.783 174.902V174.609L227.93 174.463L228.076 174.316V174.023L228.223 173.877L228.369 173.73V173.438L228.516 173.291L228.662 173.145L228.809 172.998L228.955 172.852V172.559L229.102 172.412L229.248 172.266V171.973L229.395 171.826L229.541 171.68L229.688 171.533L229.834 171.387V171.094L229.98 170.947L230.127 170.801L230.273 170.654L230.42 170.508V170.215L230.566 170.068L230.713 169.922V169.629L230.859 169.482L231.006 169.336L231.152 169.189L231.299 169.043V168.75L231.445 168.604L231.592 168.457V168.164L231.738 168.018L231.885 167.871L232.031 167.725L232.178 167.578V167.285L232.324 167.139L232.471 166.992V166.699L232.617 166.553L232.764 166.406L232.91 166.26L233.057 166.113V165.82L233.203 165.674L233.35 165.527V165.234L233.496 165.088L233.643 164.941L233.789 164.795L233.936 164.648V164.355L234.082 164.209L234.229 164.062V163.77L234.375 163.623L234.521 163.477L234.668 163.33L234.814 163.184V162.891L234.961 162.744L235.107 162.598V162.305L235.254 162.158L235.4 162.012V161.719L235.547 161.572L235.693 161.426L235.84 161.279L235.986 161.133V160.84L236.133 160.693L236.279 160.547V160.254L236.426 160.107L236.572 159.961L236.719 159.814L236.865 159.668V159.375L237.012 159.229L237.158 159.082V158.789L237.305 158.643L237.451 158.496L237.598 158.35L237.744 158.203V157.91L237.891 157.764L238.037 157.617V157.324L238.184 157.178L238.33 157.031V156.738L238.477 156.592L238.623 156.445L238.77 156.299L238.916 156.152V155.859L239.062 155.713L239.209 155.566V155.273L239.355 155.127L239.502 154.98L239.648 154.834L239.795 154.688V154.395L239.941 154.248L240.088 154.102L240.234 153.955L240.381 153.809V153.516L240.234 153.369L240.088 153.223L239.941 153.076L239.795 152.93V152.637L239.648 152.49L239.502 152.344V152.051L239.355 151.904L239.209 151.758V151.465L239.062 151.318L238.916 151.172L238.77 151.025L238.623 150.879V150.586L238.477 150.439L238.33 150.293L238.184 150.146L238.037 150V149.707L237.891 149.561L237.744 149.414L237.598 149.268L237.451 149.121V148.828L237.305 148.682L237.158 148.535V148.242L237.012 148.096L236.865 147.949V147.656L236.719 147.51L236.572 147.363L236.426 147.217L236.279 147.07V146.777L236.133 146.631L235.986 146.484V146.191L235.84 146.045L235.693 145.898V145.605L235.547 145.459L235.4 145.312V145.02L235.254 144.873L235.107 144.727L234.961 144.58L234.814 144.434V144.141L234.668 143.994L234.521 143.848V143.555L234.375 143.408L234.229 143.262L234.082 143.115L233.936 142.969V142.676L233.789 142.529L233.643 142.383L233.496 142.236L233.35 142.09V141.797L233.203 141.65L233.057 141.504V141.211L232.91 141.064L232.764 140.918L232.617 140.771L232.471 140.625V140.332L232.324 140.186L232.178 140.039V139.746L232.031 139.6L231.885 139.453L231.738 139.307L231.592 139.16V138.867L231.445 138.721L231.299 138.574V138.281L231.152 138.135L231.006 137.988L230.859 137.842L230.713 137.695V137.402L230.566 137.256L230.42 137.109L230.273 136.963L230.127 136.816V136.523L229.98 136.377L229.834 136.23V135.938L229.688 135.791L229.541 135.645L229.395 135.498L229.248 135.352V135.059L229.102 134.912L228.955 134.766L228.809 134.619L228.662 134.473V134.18L228.516 134.033L228.369 133.887V133.594L228.223 133.447L228.076 133.301L227.93 133.154L227.783 133.008V132.715L227.637 132.568L227.49 132.422V132.129L227.344 131.982L227.197 131.836L227.051 131.689L226.904 131.543V131.25L226.758 131.104L226.611 130.957V130.664L226.465 130.518L226.318 130.371L226.172 130.225L226.025 130.078V129.785L225.879 129.639L225.732 129.492V129.199L225.586 129.053L225.439 128.906V128.613L225.293 128.467L225.146 128.32L225 128.174L224.854 128.027V127.734L224.707 127.588L224.561 127.441V127.148L224.414 127.002L224.268 126.855L224.121 126.709L223.975 126.562V126.27L223.828 126.123L223.682 125.977L223.535 125.83L223.389 125.684V125.391L223.242 125.244L223.096 125.098L222.949 124.951L222.803 124.805V124.512L222.656 124.365L222.51 124.219V123.926L222.363 123.779L222.217 123.633V123.34L222.07 123.193L221.924 123.047L221.777 122.9L221.631 122.754V122.461L221.484 122.314L221.338 122.168V121.875L221.191 121.729L221.045 121.582L220.898 121.436L220.752 121.289V120.996L220.605 120.85L220.459 120.703V120.41L220.312 120.264L220.166 120.117L220.02 119.971L219.873 119.824V119.531L219.727 119.385L219.58 119.238V118.945L219.434 118.799L219.287 118.652L219.141 118.506L218.994 118.359V118.066L218.848 117.92L218.701 117.773V117.48L218.555 117.334L218.408 117.188L218.262 117.041L218.115 116.895V116.602L217.969 116.455L217.822 116.309L217.676 116.162L217.529 116.016V115.723L217.383 115.576L217.236 115.43V115.137L217.09 114.99L216.943 114.844V114.551L216.797 114.404L216.65 114.258L216.504 114.111L216.357 113.965V113.672L216.211 113.525L216.064 113.379L215.918 113.232L215.771 113.086V112.793L215.625 112.646L215.479 112.5V112.207L215.332 112.061L215.186 111.914V111.621L215.039 111.475L214.893 111.328L214.746 111.182L214.6 111.035V110.742L214.453 110.596L214.307 110.449L214.16 110.303L214.014 110.156V109.863L213.867 109.717L213.721 109.57V109.277L213.574 109.131L213.428 108.984L213.281 108.838L213.135 108.691V108.398L212.988 108.252L212.842 108.105V107.812L212.695 107.666L212.549 107.52L212.402 107.373L212.256 107.227V106.934L212.109 106.787L211.963 106.641L211.816 106.494H211.523H211.23H210.938H210.645H210.352H210.059H209.766H209.473H209.18H208.887H208.594H208.301H208.008H207.715H207.422H207.129H206.836H206.543H206.25H205.957H205.664H205.371H205.078H204.785H204.492H204.199H203.906H203.613H203.32H203.027H202.734H202.441H202.148H201.855H201.562H201.27H200.977H200.684H200.391H200.098H199.805H199.512H199.219H198.926H198.633H198.34H198.047H197.754H197.461H197.168H196.875H196.582H196.289H195.996H195.703H195.41H195.117H194.824H194.531H194.238H193.945H193.652H193.359H193.066H192.773H192.48H192.188H191.895H191.602H191.309H191.016H190.723H190.43H190.137H189.844H189.551H189.258H188.965H188.672H188.379H188.086H187.793H187.5H187.207H186.914H186.621H186.328H186.035H185.742H185.449H185.156H184.863H184.57H184.277H183.984H183.691H183.398H183.105H182.812H182.52H182.227H181.934H181.641H181.348H181.055H180.762H180.469H180.176H179.883H179.59H179.297H179.004H178.711H178.418H178.125H177.832H177.539H177.246H176.953H176.66H176.367H176.074H175.781H175.488H175.195H174.902H174.609H174.316H174.023H173.73H173.438H173.145H172.852H172.559H172.266H171.973H171.68H171.387H171.094H170.801H170.508L170.361 106.641L170.215 106.787L170.068 106.934V107.227L169.922 107.373L169.775 107.52V107.812L169.629 107.959L169.482 108.105L169.336 108.252L169.189 108.398V108.691L169.043 108.838L168.896 108.984V109.277L168.75 109.424L168.604 109.57L168.457 109.717L168.311 109.863V110.156L168.164 110.303L168.018 110.449V110.742L167.871 110.889L167.725 111.035L167.578 111.182L167.432 111.328V111.621L167.285 111.768L167.139 111.914L166.992 112.061L166.846 112.207V112.5L166.699 112.646L166.553 112.793V113.086L166.406 113.232L166.26 113.379V113.672L166.113 113.818L165.967 113.965L165.82 114.111L165.674 114.258V114.551L165.527 114.697L165.381 114.844V115.137L165.234 115.283L165.088 115.43L164.941 115.576L164.795 115.723V116.016L164.648 116.162L164.502 116.309V116.602L164.355 116.748L164.209 116.895L164.062 117.041L163.916 117.188V117.48L163.77 117.627L163.623 117.773L163.477 117.92L163.33 118.066V118.359L163.184 118.506L163.037 118.652V118.945L162.891 119.092L162.744 119.238L162.598 119.385L162.451 119.531V119.824L162.305 119.971L162.158 120.117V120.41L162.012 120.557L161.865 120.703L161.719 120.85L161.572 120.996V121.289L161.426 121.436L161.279 121.582V121.875L161.133 122.021L160.986 122.168L160.84 122.314L160.693 122.461V122.754L160.547 122.9L160.4 123.047V123.34L160.254 123.486L160.107 123.633L159.961 123.779L159.814 123.926V124.219L159.668 124.365L159.521 124.512V124.805L159.375 124.951L159.229 125.098V125.391L159.082 125.537L158.936 125.684L158.789 125.83L158.643 125.977V126.27L158.496 126.416L158.35 126.562L158.203 126.709L158.057 126.855V127.148L157.91 127.295L157.764 127.441V127.734L157.617 127.881L157.471 128.027L157.324 128.174L157.178 128.32V128.613L157.031 128.76L156.885 128.906V129.199L156.738 129.346L156.592 129.492L156.445 129.639L156.299 129.785V130.078L156.152 130.225L156.006 130.371L155.859 130.518L155.713 130.664V130.957L155.566 131.104L155.42 131.25V131.543L155.273 131.689L155.127 131.836V132.129L154.98 132.275L154.834 132.422L154.688 132.568L154.541 132.715V133.008L154.395 133.154L154.248 133.301L154.102 133.447L153.955 133.594V133.887L153.809 134.033L153.662 134.18V134.473L153.516 134.619L153.369 134.766L153.223 134.912L153.076 135.059V135.352L152.93 135.498L152.783 135.645V135.938L152.637 136.084L152.49 136.23L152.344 136.377L152.197 136.523V136.816L152.051 136.963L151.904 137.109V137.402L151.758 137.549L151.611 137.695L151.465 137.842L151.318 137.988V138.281L151.172 138.428L151.025 138.574V138.867L150.879 139.014L150.732 139.16V139.453L150.586 139.6L150.439 139.746L150.293 139.893L150.146 140.039V140.332L150 140.479L149.854 140.625L149.707 140.771L149.561 140.918V141.211L149.707 141.357H150H150.293H150.586H150.879H151.172H151.465H151.758H152.051H152.344H152.637H152.93H153.223H153.516H153.809H154.102H154.395H154.688H154.98H155.273H155.566H155.859H156.152H156.445H156.738H157.031H157.324H157.617H157.91H158.203H158.496H158.789H159.082H159.375H159.668H159.961H160.254H160.547H160.84H161.133H161.426H161.719H162.012H162.305H162.598H162.891H163.184H163.477H163.77H164.062H164.355H164.648H164.941H165.234H165.527H165.82H166.113H166.406H166.699H166.992H167.285H167.578H167.871H168.164H168.457H168.75H169.043H169.336H169.629H169.922H170.215H170.508H170.801H171.094H171.387H171.68H171.973H172.266H172.559H172.852H173.145H173.438H173.73H174.023H174.316H174.609H174.902H175.195H175.488H175.781H176.074H176.367H176.66H176.953H177.246H177.539H177.832H178.125H178.418H178.711H179.004H179.297H179.59H179.883H180.176H180.469H180.762H181.055H181.348H181.641H181.934H182.227H182.52H182.812H183.105H183.398H183.691H183.984H184.277H184.57H184.863H185.156H185.449H185.742H186.035H186.328H186.621H186.914H187.207H187.5H187.793H188.086H188.379H188.672H188.965H189.258H189.551H189.844H190.137H190.43H190.723H191.016H191.309H191.602H191.895H192.188H192.48H192.773L192.92 141.504L193.066 141.65L193.213 141.797L193.359 141.943L193.506 142.09V142.383L193.652 142.529L193.799 142.676V142.969L193.945 143.115L194.092 143.262V143.555L194.238 143.701L194.385 143.848V144.141L194.531 144.287L194.678 144.434L194.824 144.58L194.971 144.727V145.02L195.117 145.166L195.264 145.312V145.605L195.41 145.752L195.557 145.898V146.191L195.703 146.338L195.85 146.484L195.996 146.631L196.143 146.777V147.07L196.289 147.217L196.436 147.363V147.656L196.582 147.803L196.729 147.949L196.875 148.096L197.021 148.242V148.535L197.168 148.682L197.314 148.828V149.121L197.461 149.268L197.607 149.414V149.707L197.754 149.854L197.9 150V150.293L198.047 150.439L198.193 150.586V150.879L198.34 151.025L198.486 151.172L198.633 151.318L198.779 151.465V151.758V152.051L198.926 152.197L199.072 152.344L199.219 152.49L199.365 152.637V152.93L199.512 153.076L199.658 153.223V153.516L199.805 153.662L199.951 153.809V154.102L200.098 154.248L200.244 154.395V154.688L200.391 154.834L200.537 154.98V155.273L200.684 155.42L200.83 155.566L200.977 155.713L201.123 155.859V156.152L201.27 156.299L201.416 156.445V156.738L201.562 156.885L201.709 157.031V157.324L201.855 157.471L202.002 157.617L202.148 157.764L202.295 157.91V158.203L202.441 158.35L202.588 158.496V158.789L202.734 158.936L202.881 159.082V159.375L203.027 159.521L203.174 159.668L203.32 159.814L203.467 159.961V160.254L203.613 160.4L203.76 160.547V160.84L203.906 160.986L204.053 161.133V161.426L204.199 161.572L204.346 161.719V162.012L204.492 162.158L204.639 162.305V162.598L204.785 162.744L204.932 162.891L205.078 163.037L205.225 163.184V163.477L205.371 163.623L205.518 163.77V164.062L205.664 164.209L205.811 164.355V164.648L205.957 164.795L206.104 164.941L206.25 165.088L206.396 165.234V165.527L206.543 165.674L206.689 165.82V166.113L206.836 166.26L206.982 166.406L207.129 166.553L207.275 166.699V166.992L207.422 167.139L207.568 167.285V167.578L207.715 167.725L207.861 167.871L208.008 168.018L208.154 168.164V168.457L208.301 168.604L208.447 168.75V169.043L208.594 169.189L208.74 169.336L208.887 169.482L209.033 169.629V169.922L209.18 170.068L209.326 170.215V170.508L209.473 170.654L209.619 170.801V171.094L209.766 171.24L209.912 171.387V171.68L210.059 171.826L210.205 171.973V172.266L210.352 172.412L210.498 172.559L210.645 172.705L210.791 172.852V173.145V173.438L210.938 173.584L211.084 173.73L211.23 173.877L211.377 174.023V174.316L211.523 174.463L211.67 174.609V174.902L211.816 175.049L211.963 175.195V175.488L212.109 175.635L212.256 175.781V176.074L212.402 176.221L212.549 176.367L212.695 176.514L212.842 176.66V176.953L212.988 177.1L213.135 177.246V177.539L213.281 177.686L213.428 177.832V178.125L213.574 178.271L213.721 178.418L213.867 178.564L214.014 178.711V179.004L214.16 179.15L214.307 179.297V179.59L214.453 179.736L214.6 179.883V180.176L214.746 180.322L214.893 180.469V180.762L215.039 180.908L215.186 181.055L215.332 181.201L215.479 181.348V181.641L215.625 181.787L215.771 181.934V182.227L215.918 182.373L216.064 182.52L216.211 182.666L216.357 182.812V183.105L216.504 183.252L216.65 183.398V183.691L216.797 183.838L216.943 183.984V184.277L217.09 184.424L217.236 184.57L217.383 184.717L217.529 184.863V185.156V185.449L217.676 185.596L217.822 185.742L217.969 185.889L218.115 186.035L217.969 186.182L217.822 186.328L217.676 186.475H217.383H217.09H216.797H216.504H216.211H215.918H215.625H215.332H215.039H214.746H214.453H214.16H213.867H213.574H213.281H212.988H212.695H212.402H212.109H211.816H211.523H211.23H210.938H210.645H210.352H210.059H209.766H209.473H209.18H208.887H208.594H208.301H208.008H207.715H207.422H207.129H206.836H206.543H206.25H205.957H205.664H205.371H205.078H204.785H204.492H204.199H203.906H203.613H203.32H203.027H202.734H202.441H202.148H201.855H201.562H201.27H200.977H200.684H200.391H200.098H199.805H199.512H199.219H198.926H198.633H198.34H198.047H197.754H197.461H197.168H196.875H196.582H196.289H195.996H195.703H195.41H195.117H194.824H194.531H194.238H193.945H193.652H193.359H193.066H192.773H192.48H192.188H191.895H191.602H191.309H191.016H190.723H190.43H190.137H189.844H189.551H189.258H188.965H188.672H188.379H188.086H187.793H187.5H187.207H186.914H186.621H186.328H186.035H185.742H185.449H185.156H184.863H184.57H184.277H183.984H183.691H183.398H183.105H182.812H182.52H182.227H181.934H181.641H181.348H181.055H180.762H180.469H180.176H179.883H179.59H179.297H179.004H178.711H178.418H178.125H177.832H177.539H177.246H176.953H176.66H176.367H176.074H175.781H175.488H175.195H174.902H174.609H174.316H174.023H173.73H173.438H173.145H172.852H172.559H172.266H171.973H171.68H171.387H171.094H170.801H170.508H170.215H169.922H169.629H169.336H169.043H168.75H168.457H168.164H167.871H167.578H167.285H166.992H166.699H166.406H166.113H165.82H165.527H165.234H164.941H164.648H164.355H164.062H163.77H163.477H163.184H162.891H162.598H162.305H162.012H161.719H161.426H161.133H160.84H160.547H160.254H159.961H159.668H159.375H159.082H158.789H158.496H158.203H157.91H157.617H157.324H157.031H156.738H156.445H156.152H155.859H155.566H155.273H154.98H154.688H154.395H154.102H153.809H153.516H153.223H152.93H152.637H152.344H152.051H151.758H151.465H151.172H150.879H150.586H150.293H150H149.707H149.414H149.121H148.828H148.535H148.242H147.949H147.656H147.363H147.07H146.777H146.484H146.191H145.898H145.605H145.312H145.02H144.727H144.434H144.141H143.848H143.555H143.262H142.969H142.676H142.383H142.09H141.797H141.504H141.211H140.918H140.625H140.332H140.039H139.746H139.453H139.16H138.867H138.574H138.281H137.988H137.695H137.402H137.109H136.816H136.523H136.23H135.938H135.645H135.352H135.059H134.766H134.473H134.18H133.887H133.594H133.301H133.008H132.715H132.422H132.129H131.836H131.543H131.25H130.957H130.664H130.371H130.078H129.785H129.492H129.199H128.906H128.613H128.32H128.027H127.734H127.441H127.148H126.855H126.562H126.27H125.977H125.684H125.391H125.098H124.805H124.512H124.219H123.926H123.633H123.34H123.047H122.754H122.461H122.168H121.875H121.582H121.289H120.996H120.703H120.41H120.117H119.824H119.531H119.238H118.945H118.652H118.359H118.066H117.773H117.48H117.188H116.895H116.602H116.309H116.016H115.723H115.43H115.137H114.844H114.551H114.258H113.965H113.672H113.379H113.086H112.793H112.5H112.207H111.914H111.621H111.328H111.035H110.742H110.449H110.156H109.863H109.57H109.277H108.984H108.691H108.398H108.105H107.812H107.52H107.227H106.934H106.641H106.348H106.055H105.762H105.469H105.176H104.883H104.59H104.297H104.004H103.711H103.418H103.125H102.832H102.539H102.246H101.953H101.66H101.367H101.074H100.781H100.488H100.195H99.9023H99.6094H99.3164H99.0234H98.7305H98.4375H98.1445H97.8516H97.5586H97.2656H96.9727H96.6797H96.3867H96.0938H95.8008H95.5078H95.2148H94.9219H94.6289H94.3359H94.043H93.75H93.457H93.1641H92.8711H92.5781H92.2852H91.9922H91.6992H91.4062H91.1133H90.8203H90.5273H90.2344H89.9414H89.6484H89.3555H89.0625H88.7695H88.4766H88.1836H87.8906H87.5977H87.3047H87.0117H86.7188H86.4258H86.1328H85.8398H85.5469H85.2539H84.9609H84.668H84.375H84.082H83.7891H83.4961H83.2031H82.9102H82.6172H82.3242H82.0312H81.7383L81.5918 186.328L81.4453 186.182L81.2988 186.035L81.4453 185.889L81.5918 185.742V185.449L81.7383 185.303L81.8848 185.156V184.863L82.0312 184.717L82.1777 184.57V184.277L82.3242 184.131L82.4707 183.984L82.6172 183.838L82.7637 183.691V183.398L82.9102 183.252L83.0566 183.105V182.812L83.2031 182.666L83.3496 182.52V182.227L83.4961 182.08L83.6426 181.934V181.641L83.7891 181.494L83.9355 181.348L84.082 181.201L84.2285 181.055V180.762L84.375 180.615L84.5215 180.469L84.668 180.322L84.8145 180.176V179.883L84.9609 179.736L85.1074 179.59V179.297L85.2539 179.15L85.4004 179.004L85.5469 178.857L85.6934 178.711V178.418L85.8398 178.271L85.9863 178.125V177.832L86.1328 177.686L86.2793 177.539L86.4258 177.393L86.5723 177.246V176.953L86.7188 176.807L86.8652 176.66L87.0117 176.514L87.1582 176.367V176.074L87.3047 175.928L87.4512 175.781V175.488L87.5977 175.342L87.7441 175.195V174.902L87.8906 174.756L88.0371 174.609L88.1836 174.463L88.3301 174.316V174.023L88.4766 173.877L88.623 173.73L88.7695 173.584L88.916 173.438V173.145L89.0625 172.998L89.209 172.852V172.559L89.3555 172.412L89.502 172.266L89.6484 172.119L89.7949 171.973V171.68L89.9414 171.533L90.0879 171.387V171.094L90.2344 170.947L90.3809 170.801L90.5273 170.654L90.6738 170.508V170.215L90.8203 170.068L90.9668 169.922V169.629L91.1133 169.482L91.2598 169.336L91.4062 169.189L91.5527 169.043V168.75L91.6992 168.604L91.8457 168.457V168.164L91.9922 168.018L92.1387 167.871V167.578L92.2852 167.432L92.4316 167.285L92.5781 167.139L92.7246 166.992V166.699L92.8711 166.553L93.0176 166.406V166.113L93.1641 165.967L93.3105 165.82V165.527L93.457 165.381L93.6035 165.234V164.941L93.75 164.795L93.8965 164.648L94.043 164.502L94.1895 164.355V164.062L94.3359 163.916L94.4824 163.77V163.477L94.6289 163.33L94.7754 163.184L94.9219 163.037L95.0684 162.891V162.598L95.2148 162.451L95.3613 162.305V162.012L95.5078 161.865L95.6543 161.719L95.8008 161.572L95.9473 161.426V161.133L96.0938 160.986L96.2402 160.84V160.547L96.3867 160.4L96.5332 160.254L96.6797 160.107L96.8262 159.961V159.668L96.9727 159.521L97.1191 159.375V159.082L97.2656 158.936L97.4121 158.789L97.5586 158.643L97.7051 158.496V158.203L97.8516 158.057L97.998 157.91V157.617L98.1445 157.471L98.291 157.324L98.4375 157.178L98.584 157.031V156.738L98.7305 156.592L98.877 156.445V156.152L99.0234 156.006L99.1699 155.859L99.3164 155.713L99.4629 155.566V155.273L99.6094 155.127L99.7559 154.98L99.9023 154.834L100.049 154.688V154.395L100.195 154.248L100.342 154.102V153.809L100.488 153.662L100.635 153.516L100.781 153.369L100.928 153.223V152.93L101.074 152.783L101.221 152.637V152.344L101.367 152.197L101.514 152.051L101.66 151.904L101.807 151.758V151.465L101.953 151.318L102.1 151.172L102.246 151.025L102.393 150.879V150.586L102.539 150.439L102.686 150.293V150L102.832 149.854L102.979 149.707L103.125 149.561L103.271 149.414V149.121L103.418 148.975L103.564 148.828V148.535L103.711 148.389L103.857 148.242L104.004 148.096L104.15 147.949V147.656L104.297 147.51L104.443 147.363L104.59 147.217L104.736 147.07V146.777L104.883 146.631L105.029 146.484V146.191L105.176 146.045L105.322 145.898V145.605L105.469 145.459L105.615 145.312L105.762 145.166L105.908 145.02V144.727L106.055 144.58L106.201 144.434V144.141L106.348 143.994L106.494 143.848V143.555L106.641 143.408L106.787 143.262V142.969L106.934 142.822L107.08 142.676L107.227 142.529L107.373 142.383V142.09L107.52 141.943L107.666 141.797V141.504L107.812 141.357L107.959 141.211L108.105 141.064L108.252 140.918V140.625L108.398 140.479L108.545 140.332V140.039L108.691 139.893L108.838 139.746L108.984 139.6L109.131 139.453V139.16L109.277 139.014L109.424 138.867L109.57 138.721L109.717 138.574V138.281L109.863 138.135L110.01 137.988V137.695L110.156 137.549L110.303 137.402V137.109L110.449 136.963L110.596 136.816L110.742 136.67L110.889 136.523V136.23L111.035 136.084L111.182 135.938V135.645L111.328 135.498L111.475 135.352V135.059L111.621 134.912L111.768 134.766L111.914 134.619L112.061 134.473V134.18L112.207 134.033L112.354 133.887V133.594L112.5 133.447L112.646 133.301V133.008L112.793 132.861L112.939 132.715V132.422L113.086 132.275L113.232 132.129L113.379 131.982L113.525 131.836V131.543L113.672 131.396L113.818 131.25L113.965 131.104L114.111 130.957V130.664L114.258 130.518L114.404 130.371V130.078L114.551 129.932L114.697 129.785L114.844 129.639L114.99 129.492V129.199L115.137 129.053L115.283 128.906V128.613L115.43 128.467L115.576 128.32L115.723 128.174L115.869 128.027V127.734L116.016 127.588L116.162 127.441V127.148L116.309 127.002L116.455 126.855L116.602 126.709L116.748 126.562V126.27L116.895 126.123L117.041 125.977V125.684L117.188 125.537L117.334 125.391L117.48 125.244L117.627 125.098V124.805L117.773 124.658L117.92 124.512L118.066 124.365L118.213 124.219V123.926L118.359 123.779L118.506 123.633V123.34L118.652 123.193L118.799 123.047L118.945 122.9L119.092 122.754V122.461L119.238 122.314L119.385 122.168L119.531 122.021L119.678 121.875V121.582L119.824 121.436L119.971 121.289V120.996L120.117 120.85L120.264 120.703V120.41L120.41 120.264L120.557 120.117L120.703 119.971L120.85 119.824V119.531V119.238L120.996 119.092L121.143 118.945L121.289 118.799L121.436 118.652V118.359L121.582 118.213L121.729 118.066V117.773L121.875 117.627L122.021 117.48V117.188L122.168 117.041L122.314 116.895L122.461 116.748L122.607 116.602V116.309L122.754 116.162L122.9 116.016V115.723L123.047 115.576L123.193 115.43L123.34 115.283L123.486 115.137V114.844L123.633 114.697L123.779 114.551L123.926 114.404L124.072 114.258V113.965L124.219 113.818L124.365 113.672V113.379L124.512 113.232L124.658 113.086L124.805 112.939L124.951 112.793V112.5L125.098 112.354L125.244 112.207V111.914L125.391 111.768L125.537 111.621L125.684 111.475L125.83 111.328V111.035L125.977 110.889L126.123 110.742V110.449L126.27 110.303L126.416 110.156L126.562 110.01L126.709 109.863V109.57L126.855 109.424L127.002 109.277V108.984L127.148 108.838L127.295 108.691L127.441 108.545L127.588 108.398V108.105L127.734 107.959L127.881 107.812L128.027 107.666L128.174 107.52V107.227L128.32 107.08L128.467 106.934V106.641L128.613 106.494L128.76 106.348V106.055L128.906 105.908L129.053 105.762L129.199 105.615L129.346 105.469V105.176L129.492 105.029L129.639 104.883V104.59L129.785 104.443L129.932 104.297V104.004L130.078 103.857L130.225 103.711L130.371 103.564L130.518 103.418V103.125L130.664 102.979L130.811 102.832V102.539L130.957 102.393L131.104 102.246V101.953L131.25 101.807L131.396 101.66L131.543 101.514L131.689 101.367V101.074L131.836 100.928L131.982 100.781L132.129 100.635L132.275 100.488V100.195L132.422 100.049L132.568 99.9023V99.6094L132.715 99.4629L132.861 99.3164L133.008 99.1699L133.154 99.0234V98.7305L133.301 98.584L133.447 98.4375V98.1445L133.594 97.998L133.74 97.8516V97.5586L133.887 97.4121L134.033 97.2656L134.18 97.1191L134.326 96.9727V96.6797L134.473 96.5332L134.619 96.3867V96.0938L134.766 95.9473L134.912 95.8008L135.059 95.6543L135.205 95.5078V95.2148L135.352 95.0684L135.498 94.9219V94.6289L135.645 94.4824L135.791 94.3359L135.938 94.1895L136.084 94.043V93.75L136.23 93.6035L136.377 93.457V93.1641L136.523 93.0176L136.67 92.8711V92.5781L136.816 92.4316L136.963 92.2852L137.109 92.1387L137.256 91.9922V91.6992L137.402 91.5527L137.549 91.4062V91.1133L137.695 90.9668L137.842 90.8203V90.5273L137.988 90.3809L138.135 90.2344L138.281 90.0879L138.428 89.9414V89.6484L138.574 89.502L138.721 89.3555V89.0625L138.867 88.916L139.014 88.7695V88.4766L139.16 88.3301L139.307 88.1836L139.453 88.0371L139.6 87.8906V87.5977L139.746 87.4512L139.893 87.3047L140.039 87.1582L140.186 87.0117V86.7188L140.332 86.5723L140.479 86.4258L140.625 86.2793L140.771 86.1328V85.8398L140.918 85.6934L141.064 85.5469V85.2539L141.211 85.1074L141.357 84.9609L141.504 84.8145L141.65 84.668V84.375L141.797 84.2285L141.943 84.082V83.7891L142.09 83.6426L142.236 83.4961L142.383 83.3496L142.529 83.2031V82.9102L142.676 82.7637L142.822 82.6172V82.3242L142.969 82.1777L143.115 82.0312L143.262 81.8848L143.408 81.7383V81.4453L143.555 81.2988L143.701 81.1523V80.8594L143.848 80.7129L143.994 80.5664V80.2734L144.141 80.127L144.287 79.9805L144.434 79.834L144.58 79.6875V79.3945L144.727 79.248L144.873 79.1016V78.8086L145.02 78.6621L145.166 78.5156V78.2227L145.312 78.0762L145.459 77.9297V77.6367L145.605 77.4902L145.752 77.3438L145.898 77.1973L146.045 77.0508V76.7578L146.191 76.6113L146.338 76.4648V76.1719L146.484 76.0254L146.631 75.8789L146.777 75.7324L146.924 75.5859V75.293L147.07 75.1465L147.217 75V74.707L147.363 74.5605L147.51 74.4141L147.656 74.2676L147.803 74.1211V73.8281L147.949 73.6816L148.096 73.5352V73.2422L148.242 73.0957L148.389 72.9492L148.535 72.8027L148.682 72.6562V72.3633L148.828 72.2168L148.975 72.0703V71.7773L149.121 71.6309L149.268 71.4844L149.414 71.3379L149.561 71.1914L149.707 71.0449L149.854 71.1914L150 71.3379L150.146 71.4844L150.293 71.6309L150.439 71.7773V72.0703L150.586 72.2168L150.732 72.3633L150.879 72.5098L151.025 72.6562V72.9492L151.172 73.0957L151.318 73.2422V73.5352L151.465 73.6816L151.611 73.8281L151.758 73.9746L151.904 74.1211V74.4141L152.051 74.5605L152.197 74.707V75L152.344 75.1465L152.49 75.293L152.637 75.4395L152.783 75.5859V75.8789L152.93 76.0254L153.076 76.1719V76.4648L153.223 76.6113L153.369 76.7578L153.516 76.9043L153.662 77.0508V77.3438L153.809 77.4902L153.955 77.6367V77.9297L154.102 78.0762L154.248 78.2227L154.395 78.3691L154.541 78.5156V78.8086L154.688 78.9551L154.834 79.1016L154.98 79.248L155.127 79.3945V79.6875L155.273 79.834L155.42 79.9805V80.2734L155.566 80.4199L155.713 80.5664L155.859 80.7129L156.006 80.8594V81.1523L156.152 81.2988L156.299 81.4453V81.7383L156.445 81.8848L156.592 82.0312L156.738 82.1777L156.885 82.3242V82.6172L157.031 82.7637L157.178 82.9102L157.324 83.0566L157.471 83.2031V83.4961L157.617 83.6426L157.764 83.7891L157.91 83.9355L158.057 84.082V84.375L158.203 84.5215L158.35 84.668V84.9609L158.496 85.1074L158.643 85.2539L158.789 85.4004L158.936 85.5469V85.8398L159.082 85.9863L159.229 86.1328V86.4258L159.375 86.5723L159.521 86.7188V87.0117L159.668 87.1582L159.814 87.3047V87.5977L159.961 87.7441L160.107 87.8906V88.1836L160.254 88.3301L160.4 88.4766L160.547 88.623L160.693 88.7695V89.0625L160.84 89.209L160.986 89.3555L161.133 89.502L161.279 89.6484V89.9414L161.426 90.0879L161.572 90.2344V90.5273L161.719 90.6738L161.865 90.8203L162.012 90.9668L162.158 91.1133V91.4062L162.305 91.5527L162.451 91.6992V91.9922L162.598 92.1387L162.744 92.2852L162.891 92.4316L163.037 92.5781V92.8711L163.184 93.0176L163.33 93.1641V93.457L163.477 93.6035L163.623 93.75L163.77 93.8965L163.916 94.043V94.3359L164.062 94.4824L164.209 94.6289L164.355 94.7754L164.502 94.9219V95.2148L164.648 95.3613L164.795 95.5078V95.8008L164.941 95.9473L165.088 96.0938L165.234 96.2402L165.381 96.3867V96.6797L165.527 96.8262L165.674 96.9727V97.2656L165.82 97.4121L165.967 97.5586L166.113 97.7051L166.26 97.8516V98.1445L166.406 98.291L166.553 98.4375V98.7305L166.699 98.877L166.846 99.0234L166.992 99.1699L167.139 99.3164V99.6094L167.285 99.7559L167.432 99.9023V100.195L167.578 100.342L167.725 100.488L167.871 100.635L168.018 100.781V101.074L168.164 101.221L168.311 101.367L168.457 101.514L168.604 101.66V101.953L168.75 102.1L168.896 102.246V102.539L169.043 102.686L169.189 102.832V103.125L169.336 103.271L169.482 103.418L169.629 103.564L169.775 103.711V104.004L169.922 104.15L170.068 104.297V104.59L170.215 104.736H170.508H170.801L170.947 104.59V104.297L171.094 104.15L171.24 104.004V103.711L171.387 103.564L171.533 103.418L171.68 103.271L171.826 103.125V102.832L171.973 102.686L172.119 102.539V102.246L172.266 102.1L172.412 101.953L172.559 101.807L172.705 101.66V101.367L172.852 101.221L172.998 101.074L173.145 100.928L173.291 100.781V100.488L173.438 100.342L173.584 100.195L173.73 100.049L173.877 99.9023V99.6094L174.023 99.4629L174.17 99.3164V99.0234L174.316 98.877L174.463 98.7305L174.609 98.584L174.756 98.4375V98.1445L174.902 97.998L175.049 97.8516L175.195 97.7051L175.342 97.5586V97.2656L175.488 97.1191L175.635 96.9727V96.6797L175.781 96.5332L175.928 96.3867L176.074 96.2402L176.221 96.0938V95.8008L176.367 95.6543L176.514 95.5078V95.2148L176.66 95.0684L176.807 94.9219L176.953 94.7754L177.1 94.6289V94.3359L177.246 94.1895L177.393 94.043L177.539 93.8965L177.686 93.75V93.457L177.832 93.3105L177.979 93.1641L178.125 93.0176L178.271 92.8711V92.5781L178.418 92.4316L178.564 92.2852V91.9922L178.711 91.8457L178.857 91.6992L179.004 91.5527L179.15 91.4062V91.1133L179.297 90.9668L179.443 90.8203V90.5273L179.59 90.3809L179.736 90.2344L179.883 90.0879L180.029 89.9414V89.6484L180.176 89.502L180.322 89.3555L180.469 89.209L180.615 89.0625V88.7695L180.762 88.623L180.908 88.4766L181.055 88.3301L181.201 88.1836V87.8906L181.348 87.7441L181.494 87.5977V87.3047L181.641 87.1582L181.787 87.0117L181.934 86.8652L182.08 86.7188V86.4258L182.227 86.2793L182.373 86.1328L182.52 85.9863L182.666 85.8398V85.5469L182.812 85.4004L182.959 85.2539V84.9609L183.105 84.8145L183.252 84.668L183.398 84.5215L183.545 84.375V84.082L183.691 83.9355L183.838 83.7891V83.4961L183.984 83.3496L184.131 83.2031L184.277 83.0566L184.424 82.9102V82.6172L184.57 82.4707L184.717 82.3242L184.863 82.1777L185.01 82.0312V81.7383L185.156 81.5918L185.303 81.4453V81.1523L185.449 81.0059L185.596 80.8594V80.5664L185.742 80.4199L185.889 80.2734L186.035 80.127L186.182 79.9805V79.6875L186.328 79.541L186.475 79.3945L186.621 79.248L186.768 79.1016V78.8086L186.914 78.6621L187.061 78.5156V78.2227L187.207 78.0762L187.354 77.9297L187.5 77.7832L187.646 77.6367V77.3438L187.793 77.1973L187.939 77.0508V76.7578L188.086 76.6113H188.379L188.525 76.4648V76.1719L188.672 76.0254L188.818 75.8789V75.5859L188.965 75.4395L189.111 75.293L189.258 75.1465L189.404 75V74.707L189.551 74.5605L189.697 74.4141V74.1211L189.844 73.9746L189.99 73.8281L190.137 73.6816L190.283 73.5352V73.2422L190.43 73.0957L190.576 72.9492V72.6562L190.723 72.5098L190.869 72.3633L191.016 72.2168L191.162 72.0703V71.7773L191.309 71.6309L191.455 71.4844V71.1914V70.8984L191.309 70.752H191.016H190.723H190.43H190.137H189.844H189.551H189.258H188.965H188.672H188.379H188.086H187.793H187.5H187.207H186.914H186.621H186.328H186.035H185.742H185.449H185.156H184.863H184.57H184.277H183.984H183.691H183.398H183.105H182.812H182.52H182.227H181.934H181.641H181.348H181.055H180.762H180.469H180.176H179.883H179.59H179.297H179.004H178.711H178.418H178.125H177.832H177.539H177.246H176.953H176.66H176.367H176.074H175.781H175.488H175.195H174.902H174.609H174.316H174.023H173.73H173.438H173.145H172.852H172.559H172.266H171.973H171.68H171.387H171.094H170.801H170.508H170.215H169.922H169.629H169.336H169.043H168.75H168.457H168.164H167.871H167.578H167.285H166.992H166.699H166.406H166.113H165.82H165.527H165.234H164.941H164.648H164.355H164.062H163.77H163.477H163.184H162.891H162.598H162.305H162.012H161.719H161.426H161.133H160.84H160.547H160.254H159.961H159.668H159.375H159.082H158.789H158.496H158.203H157.91H157.617H157.324H157.031H156.738H156.445H156.152H155.859H155.566H155.273H154.98H154.688H154.395H154.102H153.809H153.516H153.223H152.93H152.637H152.344H152.051H151.758H151.465H151.172H150.879H150.586H150.293H150H149.707H149.414H149.121H148.828H148.535H148.242H147.949H147.656H147.363H147.07H146.777H146.484H146.191H145.898H145.605H145.312H145.02H144.727H144.434H144.141H143.848H143.555H143.262H142.969H142.676H142.383H142.09H141.797H141.504H141.211H140.918H140.625H140.332H140.039H139.746H139.453H139.16H138.867H138.574H138.281H137.988H137.695H137.402H137.109H136.816H136.523H136.23H135.938H135.645H135.352H135.059H134.766H134.473H134.18H133.887H133.594H133.301H133.008H132.715H132.422H132.129H131.836H131.543H131.25H130.957H130.664H130.371H130.078H129.785H129.492H129.199H128.906H128.613H128.32H128.027H127.734H127.441H127.148H126.855H126.562H126.27H125.977H125.684H125.391H125.098H124.805H124.512H124.219H123.926H123.633H123.34H123.047H122.754H122.461H122.168H121.875H121.582H121.289H120.996H120.703H120.41H120.117H119.824H119.531H119.238H118.945H118.652H118.359H118.066H117.773H117.48H117.188H116.895H116.602H116.309H116.016H115.723H115.43H115.137H114.844H114.551H114.258H113.965H113.672H113.379H113.086H112.793H112.5H112.207H111.914H111.621H111.328H111.035H110.742H110.449H110.156H109.863H109.57H109.277H108.984H108.691H108.398H108.105H107.812H107.52H107.227H106.934H106.641H106.348L106.201 70.8984L106.055 71.0449L105.908 71.1914V71.4844L105.762 71.6309L105.615 71.7773V72.0703L105.469 72.2168L105.322 72.3633L105.176 72.5098L105.029 72.6562V72.9492L104.883 73.0957L104.736 73.2422V73.5352L104.59 73.6816L104.443 73.8281L104.297 73.9746L104.15 74.1211V74.4141L104.004 74.5605L103.857 74.707L103.711 74.8535L103.564 75V75.293L103.418 75.4395L103.271 75.5859V75.8789L103.125 76.0254L102.979 76.1719L102.832 76.3184L102.686 76.4648V76.7578L102.539 76.9043L102.393 77.0508V77.3438L102.246 77.4902L102.1 77.6367L101.953 77.7832L101.807 77.9297V78.2227L101.66 78.3691L101.514 78.5156V78.8086L101.367 78.9551L101.221 79.1016V79.3945L101.074 79.541L100.928 79.6875L100.781 79.834L100.635 79.9805V80.2734L100.488 80.4199L100.342 80.5664L100.195 80.7129L100.049 80.8594V81.1523L99.9023 81.2988L99.7559 81.4453V81.7383L99.6094 81.8848L99.4629 82.0312L99.3164 82.1777L99.1699 82.3242V82.6172L99.0234 82.7637L98.877 82.9102V83.2031L98.7305 83.3496L98.584 83.4961V83.7891L98.4375 83.9355L98.291 84.082L98.1445 84.2285L97.998 84.375V84.668L97.8516 84.8145L97.7051 84.9609V85.2539L97.5586 85.4004L97.4121 85.5469V85.8398L97.2656 85.9863L97.1191 86.1328L96.9727 86.2793L96.8262 86.4258V86.7188L96.6797 86.8652L96.5332 87.0117V87.3047L96.3867 87.4512L96.2402 87.5977V87.8906L96.0938 88.0371L95.9473 88.1836L95.8008 88.3301L95.6543 88.4766V88.7695L95.5078 88.916L95.3613 89.0625V89.3555L95.2148 89.502L95.0684 89.6484L94.9219 89.7949L94.7754 89.9414V90.2344L94.6289 90.3809L94.4824 90.5273V90.8203L94.3359 90.9668L94.1895 91.1133L94.043 91.2598L93.8965 91.4062V91.6992L93.75 91.8457L93.6035 91.9922L93.457 92.1387L93.3105 92.2852V92.5781L93.1641 92.7246L93.0176 92.8711V93.1641L92.8711 93.3105L92.7246 93.457V93.75L92.5781 93.8965L92.4316 94.043L92.2852 94.1895L92.1387 94.3359V94.6289L91.9922 94.7754L91.8457 94.9219V95.2148L91.6992 95.3613L91.5527 95.5078V95.8008L91.4062 95.9473L91.2598 96.0938L91.1133 96.2402L90.9668 96.3867V96.6797L90.8203 96.8262L90.6738 96.9727V97.2656L90.5273 97.4121L90.3809 97.5586L90.2344 97.7051L90.0879 97.8516V98.1445L89.9414 98.291L89.7949 98.4375L89.6484 98.584L89.502 98.7305V99.0234L89.3555 99.1699L89.209 99.3164V99.6094L89.0625 99.7559L88.916 99.9023L88.7695 100.049L88.623 100.195V100.488L88.4766 100.635L88.3301 100.781L88.1836 100.928L88.0371 101.074V101.367L87.8906 101.514L87.7441 101.66V101.953L87.5977 102.1L87.4512 102.246L87.3047 102.393L87.1582 102.539V102.832L87.0117 102.979L86.8652 103.125L86.7188 103.271L86.5723 103.418V103.711L86.4258 103.857L86.2793 104.004V104.297L86.1328 104.443L85.9863 104.59V104.883L85.8398 105.029L85.6934 105.176L85.5469 105.322L85.4004 105.469V105.762L85.2539 105.908L85.1074 106.055V106.348L84.9609 106.494L84.8145 106.641L84.668 106.787L84.5215 106.934V107.227L84.375 107.373L84.2285 107.52V107.812L84.082 107.959L83.9355 108.105L83.7891 108.252L83.6426 108.398V108.691L83.4961 108.838L83.3496 108.984V109.277L83.2031 109.424L83.0566 109.57L82.9102 109.717L82.7637 109.863V110.156L82.6172 110.303L82.4707 110.449V110.742L82.3242 110.889L82.1777 111.035L82.0312 111.182L81.8848 111.328V111.621L81.7383 111.768L81.5918 111.914V112.207L81.4453 112.354L81.2988 112.5V112.793L81.1523 112.939L81.0059 113.086L80.8594 113.232L80.7129 113.379V113.672L80.5664 113.818L80.4199 113.965V114.258L80.2734 114.404L80.127 114.551V114.844L79.9805 114.99L79.834 115.137L79.6875 115.283L79.541 115.43V115.723L79.3945 115.869L79.248 116.016L79.1016 116.162L78.9551 116.309V116.602L78.8086 116.748L78.6621 116.895L78.5156 117.041L78.3691 117.188V117.48L78.2227 117.627L78.0762 117.773V118.066L77.9297 118.213L77.7832 118.359L77.6367 118.506L77.4902 118.652V118.945L77.3438 119.092L77.1973 119.238V119.531L77.0508 119.678L76.9043 119.824L76.7578 119.971L76.6113 120.117V120.41L76.4648 120.557L76.3184 120.703V120.996L76.1719 121.143L76.0254 121.289L75.8789 121.436L75.7324 121.582V121.875L75.5859 122.021L75.4395 122.168V122.461L75.293 122.607L75.1465 122.754L75 122.9L74.8535 123.047V123.34L74.707 123.486L74.5605 123.633V123.926L74.4141 124.072L74.2676 124.219V124.512L74.1211 124.658L73.9746 124.805L73.8281 124.951L73.6816 125.098V125.391L73.5352 125.537L73.3887 125.684V125.977L73.2422 126.123L73.0957 126.27V126.562L72.9492 126.709L72.8027 126.855L72.6562 127.002L72.5098 127.148V127.441L72.3633 127.588L72.2168 127.734L72.0703 127.881L71.9238 128.027V128.32L71.7773 128.467L71.6309 128.613V128.906L71.4844 129.053L71.3379 129.199L71.1914 129.346L71.0449 129.492V129.785L70.8984 129.932L70.752 130.078V130.371L70.6055 130.518L70.459 130.664V130.957L70.3125 131.104L70.166 131.25L70.0195 131.396L69.873 131.543V131.836L69.7266 131.982L69.5801 132.129L69.4336 132.275L69.2871 132.422V132.715L69.1406 132.861L68.9941 133.008V133.301L68.8477 133.447L68.7012 133.594L68.5547 133.74L68.4082 133.887V134.18L68.2617 134.326L68.1152 134.473V134.766L67.9688 134.912L67.8223 135.059V135.352L67.6758 135.498L67.5293 135.645V135.938L67.3828 136.084L67.2363 136.23L67.0898 136.377L66.9434 136.523V136.816L66.7969 136.963L66.6504 137.109L66.5039 137.256L66.3574 137.402V137.695L66.2109 137.842L66.0645 137.988V138.281L65.918 138.428L65.7715 138.574L65.625 138.721L65.4785 138.867V139.16L65.332 139.307L65.1855 139.453V139.746L65.0391 139.893L64.8926 140.039L64.7461 140.186L64.5996 140.332V140.625L64.4531 140.771L64.3066 140.918V141.211L64.1602 141.357L64.0137 141.504L63.8672 141.65L63.7207 141.797V142.09L63.5742 142.236L63.4277 142.383V142.676L63.2812 142.822L63.1348 142.969L62.9883 143.115L62.8418 143.262V143.555L62.6953 143.701L62.5488 143.848V144.141L62.4023 144.287L62.2559 144.434L62.1094 144.58L61.9629 144.727V145.02L61.8164 145.166L61.6699 145.312V145.605L61.5234 145.752L61.377 145.898L61.2305 146.045L61.084 146.191V146.484L60.9375 146.631L60.791 146.777V147.07L60.6445 147.217L60.498 147.363L60.3516 147.51L60.2051 147.656V147.949L60.0586 148.096L59.9121 148.242V148.535L59.7656 148.682L59.6191 148.828L59.4727 148.975L59.3262 149.121V149.414V149.707V150V150.293L59.4727 150.439L59.6191 150.586V150.879L59.7656 151.025L59.9121 151.172L60.0586 151.318L60.2051 151.465V151.758L60.3516 151.904L60.498 152.051V152.344L60.6445 152.49L60.791 152.637L60.9375 152.783L61.084 152.93V153.223L61.2305 153.369L61.377 153.516V153.809L61.5234 153.955L61.6699 154.102L61.8164 154.248L61.9629 154.395V154.688L62.1094 154.834L62.2559 154.98V155.273L62.4023 155.42L62.5488 155.566V155.859L62.6953 156.006L62.8418 156.152L62.9883 156.299L63.1348 156.445V156.738L63.2812 156.885L63.4277 157.031V157.324L63.5742 157.471L63.7207 157.617L63.8672 157.764L64.0137 157.91V158.203L64.1602 158.35L64.3066 158.496V158.789L64.4531 158.936L64.5996 159.082V159.375L64.7461 159.521L64.8926 159.668L65.0391 159.814L65.1855 159.961V160.254L65.332 160.4L65.4785 160.547V160.84L65.625 160.986L65.7715 161.133L65.918 161.279L66.0645 161.426V161.719L66.2109 161.865L66.3574 162.012V162.305L66.5039 162.451L66.6504 162.598V162.891L66.7969 163.037L66.9434 163.184L67.0898 163.33L67.2363 163.477V163.77L67.3828 163.916L67.5293 164.062L67.6758 164.209L67.8223 164.355V164.648L67.9688 164.795L68.1152 164.941V165.234L68.2617 165.381L68.4082 165.527L68.5547 165.674L68.7012 165.82V166.113L68.8477 166.26L68.9941 166.406L69.1406 166.553L69.2871 166.699V166.992L69.4336 167.139L69.5801 167.285V167.578L69.7266 167.725L69.873 167.871L70.0195 168.018L70.166 168.164V168.457L70.3125 168.604L70.459 168.75V169.043L70.6055 169.189L70.752 169.336V169.629L70.8984 169.775L71.0449 169.922V170.215L71.1914 170.361L71.3379 170.508L71.4844 170.654L71.6309 170.801V171.094L71.7773 171.24L71.9238 171.387V171.68L72.0703 171.826L72.2168 171.973L72.3633 172.119L72.5098 172.266V172.559L72.6562 172.705L72.8027 172.852V173.145L72.9492 173.291L73.0957 173.438L73.2422 173.584L73.3887 173.73V174.023L73.5352 174.17L73.6816 174.316V174.609L73.8281 174.756L73.9746 174.902V175.195L74.1211 175.342L74.2676 175.488L74.4141 175.635L74.5605 175.781V176.074L74.707 176.221L74.8535 176.367V176.66L75 176.807L75.1465 176.953L75.293 177.1L75.4395 177.246V177.539L75.5859 177.686L75.7324 177.832V178.125L75.8789 178.271L76.0254 178.418L76.1719 178.564L76.3184 178.711V179.004L76.4648 179.15L76.6113 179.297V179.59L76.7578 179.736L76.9043 179.883L77.0508 180.029L77.1973 180.176V180.469L77.3438 180.615L77.4902 180.762V181.055L77.6367 181.201L77.7832 181.348L77.9297 181.494L78.0762 181.641V181.934L78.2227 182.08L78.3691 182.227V182.52L78.5156 182.666L78.6621 182.812L78.8086 182.959L78.9551 183.105V183.398L79.1016 183.545L79.248 183.691V183.984L79.3945 184.131L79.541 184.277L79.6875 184.424L79.834 184.57V184.863L79.9805 185.01L80.127 185.156V185.449L80.2734 185.596L80.4199 185.742L80.5664 185.889L80.7129 186.035V186.328L80.8594 186.475L81.0059 186.621V186.914L81.1523 187.061L81.2988 187.207V187.5L81.4453 187.646L81.5918 187.793L81.7383 187.939L81.8848 188.086V188.379L82.0312 188.525L82.1777 188.672L82.3242 188.818L82.4707 188.965V189.258L82.6172 189.404L82.7637 189.551V189.844L82.9102 189.99L83.0566 190.137V190.43L83.2031 190.576L83.3496 190.723L83.4961 190.869L83.6426 191.016V191.309L83.7891 191.455L83.9355 191.602V191.895L84.082 192.041L84.2285 192.188L84.375 192.334L84.5215 192.48V192.773L84.668 192.92L84.8145 193.066V193.359L84.9609 193.506L85.1074 193.652L85.2539 193.799L85.4004 193.945V194.238L85.5469 194.385L85.6934 194.531V194.824L85.8398 194.971L85.9863 195.117L86.1328 195.264L86.2793 195.41V195.703L86.4258 195.85L86.5723 195.996L86.7188 196.143L86.8652 196.289V196.582L87.0117 196.729L87.1582 196.875V197.168L87.3047 197.314L87.4512 197.461L87.5977 197.607L87.7441 197.754V198.047L87.8906 198.193L88.0371 198.34V198.633L88.1836 198.779L88.3301 198.926L88.4766 199.072L88.623 199.219V199.512L88.7695 199.658L88.916 199.805V200.098L89.0625 200.244L89.209 200.391V200.684L89.3555 200.83L89.502 200.977L89.6484 201.123L89.7949 201.27V201.562L89.9414 201.709L90.0879 201.855V202.148L90.2344 202.295L90.3809 202.441L90.5273 202.588L90.6738 202.734V203.027L90.8203 203.174L90.9668 203.32V203.613L91.1133 203.76L91.2598 203.906L91.4062 204.053L91.5527 204.199V204.492L91.6992 204.639L91.8457 204.785V205.078L91.9922 205.225L92.1387 205.371V205.664L92.2852 205.811L92.4316 205.957L92.5781 206.104L92.7246 206.25V206.543L92.8711 206.689L93.0176 206.836V207.129L93.1641 207.275L93.3105 207.422L93.457 207.568L93.6035 207.715V208.008L93.75 208.154L93.8965 208.301V208.594L94.043 208.74L94.1895 208.887L94.3359 209.033L94.4824 209.18V209.473L94.6289 209.619L94.7754 209.766V210.059L94.9219 210.205L95.0684 210.352L95.2148 210.498L95.3613 210.645V210.938L95.5078 211.084L95.6543 211.23L95.8008 211.377L95.9473 211.523V211.816L96.0938 211.963L96.2402 212.109V212.402L96.3867 212.549L96.5332 212.695L96.6797 212.842L96.8262 212.988V213.281L96.9727 213.428L97.1191 213.574V213.867L97.2656 214.014L97.4121 214.16L97.5586 214.307L97.7051 214.453V214.746L97.8516 214.893L97.998 215.039V215.332L98.1445 215.479L98.291 215.625V215.918L98.4375 216.064L98.584 216.211V216.504L98.7305 216.65L98.877 216.797V217.09L99.0234 217.236L99.1699 217.383L99.3164 217.529L99.4629 217.676V217.969L99.6094 218.115L99.7559 218.262L99.9023 218.408L100.049 218.555V218.848L100.195 218.994L100.342 219.141V219.434L100.488 219.58L100.635 219.727L100.781 219.873L100.928 220.02V220.312L101.074 220.459L101.221 220.605V220.898L101.367 221.045L101.514 221.191V221.484L101.66 221.631L101.807 221.777L101.953 221.924L102.1 222.07V222.363L102.246 222.51L102.393 222.656L102.539 222.803L102.686 222.949V223.242L102.832 223.389L102.979 223.535V223.828L103.125 223.975L103.271 224.121L103.418 224.268L103.564 224.414V224.707L103.711 224.854L103.857 225V225.293L104.004 225.439L104.15 225.586L104.297 225.732L104.443 225.879V226.172L104.59 226.318L104.736 226.465V226.758L104.883 226.904L105.029 227.051L105.176 227.197L105.322 227.344V227.637L105.469 227.783L105.615 227.93L105.762 228.076L105.908 228.223V228.516L106.055 228.662L106.201 228.809V229.102L106.348 229.248H106.641H106.934H107.227H107.52H107.812H108.105H108.398H108.691H108.984H109.277H109.57H109.863H110.156H110.449H110.742H111.035H111.328H111.621H111.914H112.207H112.5H112.793H113.086H113.379H113.672H113.965H114.258H114.551H114.844H115.137H115.43H115.723H116.016H116.309H116.602H116.895H117.188H117.48H117.773H118.066H118.359H118.652H118.945H119.238H119.531H119.824H120.117H120.41H120.703H120.996H121.289H121.582H121.875H122.168H122.461H122.754H123.047H123.34H123.633H123.926H124.219H124.512H124.805H125.098H125.391H125.684H125.977H126.27H126.562H126.855H127.148H127.441H127.734H128.027H128.32H128.613H128.906H129.199H129.492H129.785H130.078H130.371H130.664H130.957H131.25H131.543H131.836H132.129H132.422H132.715H133.008H133.301H133.594H133.887H134.18H134.473H134.766H135.059H135.352H135.645H135.938H136.23H136.523H136.816H137.109H137.402H137.695H137.988H138.281H138.574H138.867H139.16H139.453H139.746H140.039H140.332H140.625H140.918H141.211H141.504H141.797H142.09H142.383H142.676H142.969H143.262H143.555H143.848H144.141H144.434H144.727H145.02H145.312H145.605H145.898H146.191H146.484H146.777H147.07H147.363H147.656H147.949H148.242H148.535H148.828H149.121H149.414H149.707H150H150.293H150.586H150.879H151.172H151.465H151.758H152.051H152.344H152.637H152.93H153.223H153.516H153.809H154.102H154.395H154.688H154.98H155.273H155.566H155.859H156.152H156.445H156.738H157.031H157.324H157.617H157.91H158.203H158.496H158.789H159.082H159.375H159.668H159.961H160.254H160.547H160.84H161.133H161.426H161.719H162.012H162.305H162.598H162.891H163.184H163.477H163.77H164.062H164.355H164.648H164.941H165.234H165.527H165.82H166.113H166.406H166.699H166.992H167.285H167.578H167.871H168.164H168.457H168.75H169.043H169.336H169.629H169.922H170.215H170.508H170.801H171.094H171.387H171.68H171.973H172.266H172.559H172.852H173.145H173.438H173.73H174.023H174.316H174.609H174.902H175.195H175.488H175.781H176.074H176.367H176.66H176.953H177.246H177.539H177.832H178.125H178.418H178.711H179.004H179.297H179.59H179.883H180.176H180.469H180.762H181.055H181.348H181.641H181.934H182.227H182.52H182.812H183.105H183.398H183.691H183.984H184.277H184.57H184.863H185.156H185.449H185.742H186.035H186.328H186.621H186.914H187.207H187.5H187.793H188.086H188.379H188.672H188.965H189.258H189.551H189.844H190.137H190.43H190.723H191.016H191.309H191.602H191.895H192.188H192.48H192.773H193.066H193.359H193.652H193.945H194.238H194.531H194.824L194.971 229.102Z" fill="white" fill-opacity="0.3"/>
</svg>
